# AST/ASF file generated using VICON BodyLanguage
# -----------------------------------------------
:version 1.10
:name VICON
:units
  mass 1.0
  length 0.45
  angle deg
:documentation
   .ast/.asf automatically generated from VICON data using
   VICON BodyBuilder and BodyLanguage model FoxedUp or BRILLIANT.MOD
:root
   order TX TY TZ RX RY RZ
   axis XYZ
   position 0 0 0  
   orientation 0 -0 0 
:bonedata
  begin
     id 1 
     name lhipjoint
     direction 0.432694 -0.693742 0.575759 
     length 2.19277 
     axis 0 -0 0  XYZ
  end
  begin
     id 2 
     name lfemur
     direction 0.34202 -0.939693 0  
     length 6.69022  
     axis 0 -0 20  XYZ
    dof rx ry rz
    limits (-160.0 20.0)
           (-70.0 70.0)
           (-60.0 70.0)
  end
  begin
     id 3 
     name ltibia
     direction 0.34202 -0.939693 0   
     length 6.50337   
     axis 0 -0 20   XYZ
    dof rx
    limits (-10.0 170.0)
  end
  begin
     id 4 
     name lfoot
     direction 0.158999 -0.435969 0.885805   
     length 2.70564   
     axis -90 -1.13533e-015 20   XYZ
    dof rx rz
    limits (-45.0 90.0)
           (-70.0 20.0)
  end
  begin
     id 5 
     name ltoes
     direction -0.00592919 0.00964381 0.999936   
     length 1.29929   
     axis -90 -1.13533e-015 20   XYZ
    dof rx
    limits (-90.0 20.0)
  end
  begin
     id 6 
     name rhipjoint
     direction -0.414359 -0.700339 0.581234   
     length 2.17212  
     axis 0 -0 0  XYZ 
  end
  begin
     id 7 
     name rfemur
     direction -0.34202 -0.939693 0   
     length 7.17659   
     axis 0 -0 -20   XYZ
    dof rx ry rz
    limits (-160.0 20.0)
           (-70.0 70.0)
           (-70.0 60.0)
  end
  begin
     id 8 
     name rtibia
     direction -0.34202 -0.939693 0   
     length 6.36669   
     axis 0 -0 -20   XYZ
    dof rx
    limits (-10.0 170.0)
 end
 begin
     id 9 
     name rfoot
     direction -0.137064 -0.37658 0.916188   
     length 2.22351  
     axis -90 1.13533e-015 -20   XYZ
    dof rx rz
    limits (-45.0 90.0)
           (-20.0 70.0)
  end
  begin
     id 10 
     name rtoes
     direction -0.000784077 -0.00289101 0.999996   
     length 1.09522   
     axis -90 1.13533e-015 -20   XYZ
    dof rx
    limits (-90.0 20.0)
  end
  begin
     id 11 
     name lowerback
     direction -0.0176242 0.984912 -0.172157   
     length 1.65301   
     axis 0 -0 0   XYZ
    dof rx ry rz
    limits (-20.0 45.0)
           (-30.0 30.0)
           (-30.0 30.0)
  end
  begin
     id 12 
     name upperback
     direction -0.00218128 0.998776 -0.0494072   
     length 1.67776   
     axis 0 -0 0   XYZ
    dof rx ry rz
    limits (-20.0 45.0)
           (-30.0 30.0)
           (-30.0 30.0)
  end
  begin
     id 13 
     name thorax
     direction 0.00544186 0.999658 0.0255711   
     length 1.72293   
     axis 0 -0 0   XYZ
    dof rx ry rz
    limits (-20.0 45.0)
           (-30.0 30.0)
           (-30.0 30.0)
  end
  begin
     id 14 
     name lowerneck
     direction -0.105325 0.983841 0.144785   
     length 2.14226   
     axis 0 -0 0   XYZ
    dof rx ry rz
    limits (-20.0 45.0)
           (-30.0 30.0)
           (-30.0 30.0)
  end
  begin
     id 15 
     name upperneck
     direction 0.0547957 0.988053 -0.144041   
     length 2.17508   
     axis 0 -0 0   XYZ
    dof rx ry rz
    limits (-20.0 45.0)
           (-30.0 30.0)
           (-30.0 30.0)
  end
  begin
     id 16
     name head
     direction 0.0247488 0.997534 -0.0656813  
     length 2.20048  
     axis 0 -0 0   XYZ
    dof rx ry rz
    limits (-20.0 45.0)
           (-30.0 30.0)
           (-30.0 30.0)
  end
  begin
     id 17 
     name lclavicle
     direction 0.820559 0.567247 -0.0701026  
     length 4.09615  
     axis 0 -0 0   XYZ
    dof ry rz
    limits (-20.0 10.0)
           (0.0 20.0)
  end
  begin
     id 18 
     name lhumerus
     direction 0.999977 -0.0067566 -9.96392e-005   
     length 4.59333   
     axis -180 -30 -90   XYZ
    dof rx ry rz
    limits (-60.0 90.0)
           (-90.0 90.0)
           (-90.0 90.0)
  end
  begin
     id 19
     name lradius
     direction 1 -4.48982e-011 -2.53425e-027   
     length 2.81151   
     axis -180 -30 -90   XYZ
    dof rx
    limits (-10.0 170.0)
  end
  begin
     id 20
     name lwrist
     direction 1 -4.48939e-011 -7.39254e-028   
     length 1.40576   
     axis 2.56395e-016 90 90   XYZ
    dof ry
    limits (-180.0 0.0)
 end
  begin
     id 21 
     name lhand
     direction 1 -4.48939e-011 -1.47851e-027   
     length 0.895651   
     axis 9.43423e-016 90 90   XYZ
    dof rx rz
    limits (-90.0 90.0)
           (-45.0 45.0)
  end
  begin
     id 22 
     name lfingers
     direction 1 -4.48978e-011 -2.95702e-027   
     length 0.722097   
     axis 1.88685e-015 90 90   XYZ
    dof rx
    limits (0.0 90.0)
  end
  begin
     id 23
     name lthumb
     direction 0.707107 -6.34931e-011 0.707107   
     length 1.03679   
     axis -90 45 -9.86935e-015   XYZ
    dof rx rz
    limits (-45.0 45.0)
           (-45.0 45.0)
  end
  begin
     id 24 
     name rclavicle
     direction -0.831414 0.553102 -0.0531864   
     length 4.24872  
     axis 0 -0 0   XYZ 
    dof ry rz
    limits (-10.0 20.0)
           (-20.0 0.0)
  end
  begin
     id 25 
     name rhumerus
     direction -0.999916 -0.000939607 0.0129331  
     length 4.74834   
     axis -180 30 90   XYZ
    dof rx ry rz
    limits (-90.0 60.0)
           (-90.0 90.0)
           (-90.0 90.0)
  end
  begin
     id 26 
     name rradius
     direction -1 -4.48956e-011 -1.31752e-027   
     length 2.79907   
     axis -180 30 90   XYZ
    dof rx
    limits (-10.0 170.0)
  end
  begin
     id 27 
     name rwrist
     direction -1 -4.4897e-011 -7.39254e-028   
     length 1.39954   
     axis 2.56395e-016 -90 -90   XYZ
    dof ry
    limits (-180.0 0.0)
  end
  begin
     id 28
     name rhand
     direction -0.999997 -0.00250697 0.000800838   
     length 0.953304   
     axis 9.43423e-016 -90 -90   XYZ
    dof rx rz
    limits (-90.0 90.0)
           (-45.0 45.0)
  end
  begin
     id 29
     name rfingers
     direction -1 -4.48954e-011 -2.95702e-027   
     length 0.763342   
     axis 1.88685e-015 -90 -90   XYZ
    dof rx
    limits (0.0 90.0)
  end
  begin
     id 30
     name rthumb
     direction -0.709701 -0.00217037 0.7045   
     length 1.10115   
     axis -90 -45 9.86935e-015   XYZ
    dof rx rz
    limits (-45.0 45.0)
           (-45.0 45.0)
  end
:hierarchy
  begin
    root lhipjoint rhipjoint lowerback
    lhipjoint lfemur
    lfemur ltibia
    ltibia lfoot
    lfoot ltoes
    rhipjoint rfemur
    rfemur rtibia
    rtibia rfoot
    rfoot rtoes
    lowerback upperback
    upperback thorax
    thorax lowerneck lclavicle rclavicle
    lowerneck upperneck
    upperneck head
    lclavicle lhumerus
    lhumerus lradius
    lradius lwrist
    lwrist lhand lthumb
    lhand lfingers
    rclavicle rhumerus
    rhumerus rradius
    rradius rwrist
    rwrist rhand rthumb
    rhand rfingers
  end

#!OML:ASF G:\ViconDB\ViconDB\414\test\team2\shane.ASF
:FULLY-SPECIFIED
:DEGREES
67
root 3.69757 23.0251 -17.397 -7.83547 2.45104 -7.23768
lowerback 16.3539 -0.75666 6.37957
upperback 0.25059 0.467026 2.81974
thorax -8.91795 0.0176948 -0.677822
lowerneck -19.4743 -3.88524 -8.1514
upperneck 20.4248 -4.42974 6.14201
head 10.0471 -1.97223 2.88297
rclavicle -1.22377e-015 8.74653e-015
rhumerus 52.4331 -38.0332 -28.5969
rradius 59.3846
rwrist 16.0261
rhand -36.3179 -20.6371
rfingers 7.12502
rthumb -9.41653 -50.4068
lclavicle -1.85926e-014 -5.88403e-014
lhumerus 41.1465 36.7653 12.4569
lradius 57.1033
lwrist 15.3006
lhand -49.4316 17.4362
lfingers 7.12502
lthumb -22.0435 46.1999
rfemur 10.5028 -17.2857 17.2583
rtibia 24.304
rfoot -5.22997 1.94595
rtoes -10.1193
lfemur 9.58999 8.45125 -0.588358
ltibia 30.0531
lfoot -11.8526 -25.7656
ltoes -5.92966
68
root 3.70436 23.2539 -17.3879 -7.80854 2.33386 -7.17648
lowerback 15.9214 -0.682198 6.39979
upperback 0.0652772 0.53147 2.71291
thorax -8.8721 0.0431041 -0.81955
lowerneck -19.4513 -3.82783 -7.99093
upperneck 21.0579 -4.34089 5.79537
head 10.2505 -1.96229 2.75364
rclavicle 1.07918e-014 -2.70347e-014
rhumerus 51.9718 -37.3355 -28.3455
rradius 59.6592
rwrist 14.7423
rhand -36.5358 -20.9229
rfingers 7.12502
rthumb -9.62675 -50.6829
lclavicle -1.85926e-014 -5.88403e-014
lhumerus 41.1465 36.7653 12.4569
lradius 57.1033
lwrist 15.3006
lhand -49.4316 17.4362
lfingers 7.12502
lthumb -22.0435 46.1999
rfemur 10.7112 -18.0441 17.0526
rtibia 24.578
rfoot -6.03524 1.29597
rtoes -11.0843
lfemur 9.91272 9.00865 -0.491952
ltibia 30.2975
lfoot -12.1363 -24.1815
ltoes -6.62787
69
root 3.7146 23.4691 -17.3844 -7.70327 2.16281 -7.42806
lowerback 15.4789 -0.689559 6.68555
upperback -0.108902 0.548674 2.76575
thorax -8.81126 0.0387603 -0.926315
lowerneck -19.4881 -3.72726 -8.04081
upperneck 21.6505 -4.16583 5.64198
head 10.4558 -1.90684 2.74063
rclavicle -2.1711e-015 -1.15295e-014
rhumerus 51.7537 -36.5859 -28.1042
rradius 59.9217
rwrist 14.034
rhand -36.1322 -21.0576
rfingers 7.12502
rthumb -9.23733 -50.8352
lclavicle -1.85926e-014 -5.88403e-014
lhumerus 41.1465 36.7653 12.4569
lradius 57.1033
lwrist 15.3006
lhand -49.4316 17.4362
lfingers 7.12502
lthumb -22.0435 46.1999
rfemur 10.7726 -18.8774 17.1888
rtibia 24.8298
rfoot -6.20353 0.993224
rtoes -10.6546
lfemur 10.1104 10.1014 0.222932
ltibia 30.5337
lfoot -12.2025 -23.6255
ltoes -7.64735
70
root 3.7163 23.6764 -17.384 -7.49441 2.00588 -7.52516
lowerback 15.0914 -0.579008 6.68909
upperback -0.263073 0.658243 2.64713
thorax -8.75146 0.0870564 -1.08023
lowerneck -19.8935 -3.66568 -7.6785
upperneck 22.2755 -4.13918 5.46474
head 10.7455 -1.88229 2.62576
rclavicle -6.84565e-015 -2.42517e-014
rhumerus 51.059 -36.0212 -27.6566
rradius 60.2048
rwrist 13.4228
rhand -36.1322 -21.0576
rfingers 7.12502
rthumb -9.23733 -50.8352
lclavicle -1.85926e-014 -5.88403e-014
lhumerus 41.1465 36.7653 12.4569
lradius 57.1033
lwrist 15.3006
lhand -49.4316 17.4362
lfingers 7.12502
lthumb -22.0435 46.1999
rfemur 10.6759 -19.4677 17.252
rtibia 25.0387
rfoot -5.87136 1.06095
rtoes -10.0403
lfemur 10.105 10.7303 0.569458
ltibia 30.7353
lfoot -11.8519 -23.7295
ltoes -8.42427
71
root 3.72032 23.8723 -17.3856 -7.28278 1.81832 -7.39943
lowerback 14.7225 -0.486313 6.48265
upperback -0.322435 0.712061 2.62288
thorax -8.60416 0.124206 -1.00223
lowerneck -20.0793 -3.67323 -8.00921
upperneck 22.4651 -4.08499 5.65046
head 10.8589 -1.86161 2.75887
rclavicle 8.82418e-015 2.88238e-014
rhumerus 50.7338 -35.5909 -27.0444
rradius 60.3128
rwrist 13.5527
rhand -36.1322 -21.0576
rfingers 7.12502
rthumb -9.23733 -50.8352
lclavicle -1.85926e-014 -5.88403e-014
lhumerus 41.1465 36.7653 12.4569
lradius 57.1033
lwrist 15.3006
lhand -49.4316 17.4362
lfingers 7.12502
lthumb -22.0435 46.1999
rfemur 10.5013 -19.741 17.1642
rtibia 25.1421
rfoot -5.04512 1.28767
rtoes -9.9029
lfemur 10.0597 11.2724 0.593838
ltibia 30.9151
lfoot -11.2022 -24.5858
ltoes -8.09067
72
root 3.72149 24.0524 -17.3927 -7.08739 1.72191 -7.46943
lowerback 14.5377 -0.432906 6.5052
upperback -0.401291 0.772676 2.59942
thorax -8.58077 0.151069 -1.05249
lowerneck -20.4017 -3.55933 -7.72024
upperneck 22.5813 -3.943 5.45257
head 10.9405 -1.79193 2.66015
rclavicle 1.34801e-015 -4.91992e-014
rhumerus 50.2423 -35.1207 -26.289
rradius 60.5613
rwrist 14.0107
rhand -36.1322 -21.0576
rfingers 7.12502
rthumb -9.23733 -50.8352
lclavicle -1.85926e-014 -5.88403e-014
lhumerus 41.1465 36.7653 12.4569
lradius 57.1033
lwrist 15.3006
lhand -49.4316 17.4362
lfingers 7.12502
lthumb -22.0435 46.1999
rfemur 10.283 -19.7481 17.4064
rtibia 25.1744
rfoot -4.07997 1.31471
rtoes -9.67414
lfemur 9.88337 11.721 0.825536
ltibia 31.0239
lfoot -10.2556 -26.3307
ltoes -7.87619
73
root 3.73076 24.2153 -17.4009 -6.94394 1.63097 -7.305
lowerback 14.3329 -0.401703 6.3747
upperback -0.441716 0.762851 2.45369
thorax -8.50757 0.149645 -1.13332
lowerneck -20.417 -3.46628 -7.53244
upperneck 22.4604 -3.86393 5.43905
head 10.8876 -1.74036 2.63448
rclavicle -7.56158e-015 3.83654e-014
rhumerus 49.9821 -34.8369 -25.9543
rradius 60.2964
rwrist 15.2998
rhand -36.1322 -21.0576
rfingers 7.12502
rthumb -9.23733 -50.8352
lclavicle -1.85926e-014 -5.88403e-014
lhumerus 41.1465 36.7653 12.4569
lradius 57.1033
lwrist 15.3006
lhand -49.4316 17.4362
lfingers 7.12502
lthumb -22.0435 46.1999
rfemur 10.1591 -20.2273 17.0935
rtibia 25.1168
rfoot -3.00473 2.1435
rtoes -10.2571
lfemur 9.7251 11.6825 0.528639
ltibia 31.1286
lfoot -9.44699 -27.7174
ltoes -7.5524
74
root 3.73583 24.361 -17.41 -6.89776 1.62708 -7.36629
lowerback 14.3165 -0.377554 6.42925
upperback -0.433559 0.800317 2.43186
thorax -8.48594 0.165492 -1.19542
lowerneck -20.5847 -3.53233 -7.66147
upperneck 22.3275 -3.91908 5.52455
head 10.8794 -1.76285 2.67582
rclavicle 1.42224e-014 1.21259e-014
rhumerus 49.7422 -34.7415 -25.4159
rradius 60.0364
rwrist 17.0118
rhand -36.1322 -21.0576
rfingers 7.12502
rthumb -9.23733 -50.8352
lclavicle -1.85926e-014 -5.88403e-014
lhumerus 41.1465 36.7653 12.4569
lradius 57.1033
lwrist 15.3006
lhand -49.4316 17.4362
lfingers 7.12502
lthumb -22.0435 46.1999
rfemur 10.0934 -20.2196 17.1691
rtibia 25.0046
rfoot -2.09223 2.30917
rtoes -8.85655
lfemur 9.5641 11.6593 0.547118
ltibia 31.1852
lfoot -8.65802 -29.2036
ltoes -7.08223
75
root 3.74008 24.4811 -17.425 -6.92639 1.78076 -7.39818
lowerback 14.4355 -0.44317 6.3314
upperback -0.460236 0.714594 2.49741
thorax -8.59046 0.126962 -1.05155
lowerneck -20.5743 -3.34645 -7.27405
upperneck 22.1103 -3.67743 5.15241
head 10.7626 -1.66444 2.50993
rclavicle -5.30662e-015 -4.37326e-014
rhumerus 49.5688 -34.3119 -24.8813
rradius 60.1127
rwrist 17.7568
rhand -36.1418 -18.1055
rfingers 7.12502
rthumb -9.24663 -47.8828
lclavicle -1.85926e-014 -5.88403e-014
lhumerus 41.1465 36.7653 12.4569
lradius 57.1033
lwrist 15.3006
lhand -49.4316 17.4362
lfingers 7.12502
lthumb -22.0435 46.1999
rfemur 10.1315 -20.2244 17.2184
rtibia 24.8737
rfoot -1.86943 2.52006
rtoes -9.54539
lfemur 9.41262 11.402 0.516303
ltibia 31.2058
lfoot -8.05693 -30.5077
ltoes -6.64433
